<svg width="376" height="155" viewBox="0 0 376 155" fill="none" xmlns="http://www.w3.org/2000/svg">
<path d="M71.3881 73.6895C68.489 69.3774 65.0881 65.0218 58.454 65.0218C57.1859 65.0218 55.9192 65.1806 54.7569 65.5815L52.5032 62.1729C55.2496 60.3921 59.6874 58.9802 65.3919 58.9802C74.266 58.9802 78.8202 62.2106 82.4357 66.3343C84.5821 62.8138 85.6024 58.0596 85.6024 52.1665C85.6024 37.4503 79.5125 29.8941 65.2876 29.8941C51.2698 29.8941 45.2132 37.4503 45.2132 52.1665C45.2132 66.8049 51.2698 74.2835 65.2876 74.2835C67.5156 74.2835 69.5334 74.0985 71.3881 73.6895ZM74.863 78.8253C71.7901 79.4478 68.5253 79.7916 65.2876 79.7916C46.6219 79.7916 28.3461 68.5355 28.3461 52.1665C28.3461 35.6421 46.6219 24.3837 65.2876 24.3837C84.2662 24.3837 102.367 35.561 102.367 52.1665C102.367 61.403 96.6636 68.909 88.3745 73.7603C91.0529 76.7931 93.8099 78.807 97.6491 78.807C101.839 78.807 103.529 76.3602 103.812 74.4411H109.268C109.587 76.9964 107.896 87.6163 92.646 87.6163C83.4092 87.6163 78.5254 83.5703 74.863 78.8253ZM114.367 64.7831V45.8599C114.367 43.7044 113.313 42.7471 110.038 42.7471H106.55V37.7188H129.334V64.5443C129.334 69.0667 132.573 71.0611 137.505 71.0611C141.553 71.0611 145.602 69.7075 147.786 66.6176V45.8599C147.786 43.7044 146.73 42.7471 143.456 42.7471H139.758V37.7188H162.755V65.818C162.755 68.6166 164.127 69.8925 168.352 69.8925H169.092V75.082L148.527 77.5562V72.208H148.104C144.125 75.8781 138.527 78.3546 130.532 78.3546C121.552 78.3546 114.367 74.9232 114.367 64.7831ZM199.011 73.3263C207.112 73.3263 210.189 68.0009 210.351 57.2782C210.508 46.7897 207.112 41.7122 199.011 41.7122C191.934 41.7122 187.497 46.792 187.497 57.2782C187.497 68.0032 191.862 73.3263 199.011 73.3263ZM199.011 78.3546C184.363 78.3546 171.154 69.8903 171.154 57.2782C171.154 44.9027 184.044 36.6793 199.011 36.6793C214.612 36.6793 227.114 45.0603 227.114 57.2782C227.114 69.8903 214.612 78.3546 199.011 78.3546ZM227.579 77.5562V72.5267H229.798C235.292 72.5267 235.82 71.3295 235.82 67.737V45.8599C235.82 43.7044 234.342 42.7471 230.962 42.7471H228.004V37.7188H248.884L249.94 45.9421H250.365C252.69 40.0319 258.922 36.918 264.765 36.918C269.59 36.918 273.357 38.9947 273.357 43.2006C273.357 46.1272 271.495 49.2422 266.281 49.2422C261.596 49.2422 260.683 46.8457 256.807 46.8457C253.358 46.8457 250.68 49.3222 250.68 52.9661V67.737C250.68 71.3295 251.843 72.5267 257.232 72.5267H260.294V77.5562H227.579ZM297.094 71.7019C303.75 71.7019 306.495 66.9386 306.495 62.1512V55.7613C301.637 59.5651 290.331 59.6987 290.331 66.4851C290.331 69.8114 292.94 71.7019 297.094 71.7019ZM306.814 71.6745C304.066 75.6657 298.43 78.3546 290.544 78.3546C281.389 78.3546 275.473 74.6799 275.473 68.2145C275.473 55.2038 299.453 58.6615 306.495 50.0407V49.1074C306.495 42.4821 303.044 41.4449 299.242 41.4449C288.572 41.4449 293.43 50.1161 283.605 50.1161C278.887 50.1161 277.055 47.964 277.055 45.5423C277.055 40.6453 284.804 36.6793 299.349 36.6793C313.114 36.6793 321.568 39.5544 321.568 49.907V66.4325C321.568 68.9867 322.802 70.3723 325.76 70.3723C327.026 70.3723 328.083 70.1062 328.891 69.6801L330.654 72.9242C329.209 74.6022 325.37 77.5562 318.08 77.5562C311.743 77.5562 307.763 75.3207 307.234 71.6745H306.814Z" fill="#B92B27"/>
</svg>
